<?xml version="1.0" encoding="utf-8"?>
<!-- Generator: Adobe Illustrator 15.0.0, SVG Export Plug-In . SVG Version: 6.00 Build 0)  -->
<!DOCTYPE svg PUBLIC "-//W3C//DTD SVG 1.1//EN" "http://www.w3.org/Graphics/SVG/1.1/DTD/svg11.dtd">
<svg version="1.1" id="Layer_1" xmlns="http://www.w3.org/2000/svg" xmlns:xlink="http://www.w3.org/1999/xlink" x="0px" y="0px"
	 width="208px" height="51px" viewBox="0 0 208 51" enable-background="new 0 0 208 51" xml:space="preserve">
<path fill="none" stroke="#FFFFFF" stroke-miterlimit="10" d="M102.015,25.348c0,13.383-10.847,24.229-24.229,24.229
	S53.554,38.73,53.554,25.348c0-13.381,10.851-24.232,24.232-24.232S102.015,11.967,102.015,25.348z"/>
<path fill="none" stroke="#FFFFFF" stroke-miterlimit="10" d="M50.015,25.348c0,13.383-10.847,24.229-24.229,24.229
	S1.554,38.73,1.554,25.348c0-13.381,10.851-24.232,24.232-24.232S50.015,11.967,50.015,25.348z"/>
<path fill="none" stroke="#FFFFFF" stroke-miterlimit="10" d="M154.015,25.348c0,13.383-10.847,24.229-24.229,24.229
	s-24.232-10.846-24.232-24.229c0-13.381,10.851-24.232,24.232-24.232S154.015,11.967,154.015,25.348z"/>
<path fill="none" stroke="#FFFFFF" stroke-miterlimit="10" d="M206.015,25.348c0,13.383-10.847,24.229-24.229,24.229
	s-24.232-10.846-24.232-24.229c0-13.381,10.851-24.232,24.232-24.232S206.015,11.967,206.015,25.348z"/>
<path fill-rule="evenodd" clip-rule="evenodd" fill="#FFFFFF" d="M188.017,15.947c2.179,1.474,4.941,2.071,6.87,0.763
	c0.104,1.276-2.539,2.285-1.526,2.799c0.783,0.005,1.929-0.936,2.29-0.509c-0.833,1.381-2.346,1.862-2.799,3.308
	c-0.237,0.757,0.104,1.694,0,2.544c-1.389,11.429-14.23,17.827-24.935,11.449c3.749,0.186,6.427-0.698,8.142-2.544
	c-2.85-0.117-4.346-1.591-5.088-3.816c0.69-0.158,2.019,0.323,2.289-0.254c-2.764-0.628-4.081-2.703-4.579-5.598
	c0.702,0.159,2.13,0.907,2.544,0.509c-2.013-0.862-3.218-5.172-1.526-7.378c2.814,3.038,6.229,5.475,11.703,5.852
	c-0.33-4.317,1.82-6.152,4.835-7.124C186.83,15.947,187.424,15.947,188.017,15.947z"/>
<path fill-rule="evenodd" clip-rule="evenodd" fill="#FFFFFF" d="M84.284,11.754c0,1.529,0,3.059,0,4.588
	c-1.39,0.055-3.064-0.175-4.078,0.255c-0.53,0.915-0.133,2.757-0.255,4.079c1.444,0,2.889,0,4.333,0c0,0.255,0,0.51,0,0.765
	c-0.392,1.138-0.437,2.622-0.51,4.079c-1.274,0-2.549,0-3.823,0c0,4.588,0,9.176,0,13.765c-1.955,0-3.908,0-5.863,0
	c0-4.503,0-9.007,0-13.51c-0.437-0.583-1.945-0.094-2.804-0.255c0-1.615,0-3.229,0-4.843c0.935,0,1.869,0,2.804,0
	C73.029,13.245,76.934,10.776,84.284,11.754z"/>
<g>
	<path fill-rule="evenodd" clip-rule="evenodd" fill="#FFFFFF" d="M34.483,13.103c0.595,0,1.19,0,1.785,0
		c5.753,2.728-2.876,9.438-3.826,2.806c-1.495-0.12-2.732-0.498-4.081-0.765c-0.992,1.218-1.016,3.405-1.785,4.846
		c3.263,0.308,5.942,1.2,8.162,2.551c3.711-3.159,7.716,3.593,3.571,5.356c0.428,6.143-4.96,8.63-10.458,9.692
		c-1.36,0-2.721,0-4.081,0c-5.467-1.084-10.936-3.512-10.458-9.692c-2.869-1.242-2.183-5.718,1.021-6.122
		c0.879-0.111,1.83,0.841,2.806,0.765c1.842-0.143,5.799-3.506,8.417-2.551c0.621-2.1,0.962-4.48,2.041-6.122
		c1.536,0.334,3.271,0.469,4.591,1.02C33.262,14.602,33.558,13.537,34.483,13.103z M33.718,16.673
		c0.559,1.673,4.002,1.487,3.316-1.53C35.465,13.411,33.089,14.788,33.718,16.673z M14.333,29.682
		c1.017,8.831,22.237,9.084,22.956-0.255c0.483-6.283-7.711-8.796-14.029-7.907C18.611,22.174,13.709,24.272,14.333,29.682z
		 M13.567,26.621c0.209-1.542,2.244-2.449,2.041-3.571C12.77,22.3,11.703,25.6,13.567,26.621z M35.759,23.56
		c1.299,0.571,1.567,2.173,2.551,3.061C40.297,25.154,37.75,21.625,35.759,23.56z"/>
	<path fill-rule="evenodd" clip-rule="evenodd" fill="#FFFFFF" d="M23.516,26.366c0.824,3.139-2.643,3.784-3.826,2.041
		C18.935,25.336,22.294,24.585,23.516,26.366z"/>
	<path fill-rule="evenodd" clip-rule="evenodd" fill="#FFFFFF" d="M31.933,26.366c0.824,3.139-2.643,3.784-3.826,2.041
		C27.352,25.336,30.711,24.585,31.933,26.366z"/>
	<path fill-rule="evenodd" clip-rule="evenodd" fill="#FFFFFF" d="M30.402,32.232c-0.129,2.987-9.055,2.987-9.183,0
		c1.411-0.226,2.515,1.217,4.336,1.275C27.519,33.571,28.916,32.115,30.402,32.232z"/>
</g>
<g>
	<path fill="#FFFFFF" d="M147.975,26.833L148,26.708c-2.83-0.566-5.733-0.572-7.49-0.499c0.289-1.04,0.375-2.236,0.375-3.57
		c0-1.915-0.719-3.444-1.886-4.61c0.204-0.658,0.477-2.12-0.272-3.993c0,0-1.32-0.418-4.307,1.58
		c-1.17-0.292-2.416-0.436-3.663-0.436c-1.372,0-2.758,0.175-4.051,0.53c-3.083-2.104-4.443-1.673-4.443-1.673
		c-0.888,2.222-0.339,3.866-0.172,4.274c-1.044,1.126-1.682,2.565-1.682,4.329c0,1.331,0.152,2.524,0.522,3.563
		c-1.772-0.065-4.57-0.04-7.299,0.506l0.025,0.125c2.745-0.549,5.561-0.567,7.322-0.501c0.082,0.215,0.172,0.423,0.274,0.625
		c-1.742,0.056-4.715,0.279-7.565,1.083l0.035,0.123c2.872-0.811,5.872-1.026,7.596-1.079c1.041,1.939,3.092,3.192,6.741,3.585
		c-0.518,0.348-1.046,0.941-1.26,1.942c-0.706,0.337-2.94,1.161-4.281-1.145c0,0-0.75-1.372-2.187-1.479
		c0,0-1.394-0.022-0.096,0.868c0,0,0.932,0.439,1.575,2.091c0,0,0.839,2.815,4.889,1.912v2.909c0,0-0.086,1.029-1.029,1.372
		c0,0-0.558,0.386,0.043,0.6c0,0,2.614,0.215,2.614-1.929v-3.172c0,0-0.104-1.258,0.514-1.695v5.21c0,0-0.042,1.243-0.686,1.715
		c0,0-0.429,0.771,0.514,0.557c0,0,1.8-0.258,1.886-2.358l0.042-5.271h0.432l0.042,5.271c0.086,2.1,1.886,2.358,1.886,2.358
		c0.943,0.214,0.514-0.557,0.514-0.557c-0.643-0.472-0.686-1.715-0.686-1.715v-5.165c0.618,0.481,0.514,1.65,0.514,1.65v3.172
		c0,2.144,2.615,1.929,2.615,1.929c0.6-0.214,0.043-0.6,0.043-0.6c-0.943-0.343-1.028-1.372-1.028-1.372v-4.158
		c0-1.622-0.683-2.479-1.351-2.933c3.892-0.386,5.759-1.643,6.62-3.595c1.705,0.047,4.772,0.254,7.708,1.083l0.035-0.123
		c-2.918-0.824-5.965-1.037-7.688-1.086c0.082-0.198,0.152-0.403,0.216-0.614C142.216,26.265,145.133,26.266,147.975,26.833z
		 M130.726,29.952c-4.243,0-7.682-0.639-7.682-4.739c0-0.981,0.484-1.893,1.312-2.649c1.381-1.261,3.718-0.593,6.37-0.593
		c2.641,0,4.97-0.674,6.353,0.578c0.838,0.759,1.328,1.676,1.328,2.664C138.406,29.826,134.967,29.952,130.726,29.952z"/>
	<path fill="#FFFFFF" d="M127.659,25.478c0,0.847-0.478,1.533-1.066,1.533s-1.065-0.686-1.065-1.533
		c0-0.848,0.477-1.534,1.065-1.534S127.659,24.629,127.659,25.478L127.659,25.478z M127.659,25.478"/>
	<path fill="#FFFFFF" d="M136.233,25.478c0,0.847-0.478,1.533-1.066,1.533s-1.065-0.686-1.065-1.533
		c0-0.848,0.477-1.534,1.065-1.534S136.233,24.629,136.233,25.478L136.233,25.478z M136.233,25.478"/>
</g>
</svg>
