<?xml version="1.0" encoding="utf-8"?>
<!-- Generator: Adobe Illustrator 15.0.0, SVG Export Plug-In . SVG Version: 6.00 Build 0)  -->
<!DOCTYPE svg PUBLIC "-//W3C//DTD SVG 1.1//EN" "http://www.w3.org/Graphics/SVG/1.1/DTD/svg11.dtd">
<svg version="1.1" id="Layer_1" xmlns="http://www.w3.org/2000/svg" xmlns:xlink="http://www.w3.org/1999/xlink" x="0px" y="0px"
	 width="208px" height="51px" viewBox="0 0 208 51" enable-background="new 0 0 208 51" xml:space="preserve">
<path fill="none" stroke="#FFFFFF" stroke-miterlimit="10" d="M102.015,25.348c0,13.382-10.847,24.229-24.229,24.229
	c-13.382,0-24.232-10.847-24.232-24.229c0-13.381,10.851-24.232,24.232-24.232C91.167,1.116,102.015,11.967,102.015,25.348z"/>
<path fill="none" stroke="#FFFFFF" stroke-miterlimit="10" d="M50.015,25.348c0,13.382-10.847,24.229-24.229,24.229
	c-13.382,0-24.232-10.847-24.232-24.229c0-13.381,10.851-24.232,24.232-24.232C39.167,1.116,50.015,11.967,50.015,25.348z"/>
<path fill="none" stroke="#FFFFFF" stroke-miterlimit="10" d="M154.016,25.348c0,13.382-10.848,24.229-24.229,24.229
	s-24.231-10.847-24.231-24.229c0-13.381,10.85-24.232,24.231-24.232C143.167,1.116,154.016,11.967,154.016,25.348z"/>
<path fill="none" stroke="#FFFFFF" stroke-miterlimit="10" d="M206.016,25.348c0,13.382-10.848,24.229-24.229,24.229
	s-24.231-10.847-24.231-24.229c0-13.381,10.85-24.232,24.231-24.232C195.167,1.116,206.016,11.967,206.016,25.348z"/>
<path fill="#FFFFFF" d="M188.018,15.947c2.178,1.474,4.94,2.071,6.869,0.763c0.104,1.276-2.539,2.285-1.525,2.799
	c0.783,0.005,1.929-0.936,2.289-0.509c-0.832,1.381-2.346,1.862-2.799,3.308c-0.236,0.757,0.104,1.694,0,2.544
	c-1.389,11.429-14.229,17.828-24.935,11.449c3.749,0.186,6.427-0.697,8.142-2.544c-2.85-0.116-4.346-1.591-5.088-3.815
	c0.69-0.158,2.02,0.322,2.289-0.254c-2.764-0.629-4.08-2.703-4.578-5.599c0.701,0.159,2.129,0.907,2.543,0.509
	c-2.013-0.862-3.218-5.172-1.525-7.378c2.814,3.038,6.229,5.475,11.703,5.853c-0.33-4.317,1.82-6.152,4.834-7.124
	C186.83,15.947,187.424,15.947,188.018,15.947z"/>
<path fill="#FFFFFF" d="M84.284,11.754c0,1.529,0,3.059,0,4.588c-1.39,0.055-3.064-0.175-4.078,0.255
	c-0.53,0.915-0.133,2.757-0.255,4.079c1.444,0,2.889,0,4.333,0c0,0.255,0,0.51,0,0.765c-0.392,1.138-0.437,2.622-0.51,4.079
	c-1.274,0-2.549,0-3.823,0c0,4.587,0,9.175,0,13.765c-1.955,0-3.908,0-5.863,0c0-4.503,0-9.008,0-13.51
	c-0.437-0.583-1.945-0.094-2.804-0.255c0-1.615,0-3.229,0-4.843c0.935,0,1.869,0,2.804,0C73.029,13.245,76.934,10.776,84.284,11.754
	z"/>
<path fill="#FFFFFF" d="M39.591,25.178c0-1.768-1.433-3.201-3.2-3.201c-0.778,0-1.492,0.278-2.046,0.74
	c-2.181-1.357-5.058-2.205-8.225-2.257l2.112-4.83l3.587,0.913c0.125,1.597,1.461,2.859,3.09,2.859c1.71,0,3.102-1.393,3.102-3.103
	s-1.392-3.103-3.102-3.103c-1.212,0-2.261,0.701-2.771,1.716l-4.179-1.063c-0.393-0.1-0.801,0.1-0.964,0.472L24.3,20.485
	c-0.005,0.011-0.006,0.022-0.011,0.034c-2.701,0.221-5.14,1.023-7.043,2.217c-0.558-0.473-1.279-0.76-2.068-0.76
	c-1.768,0-3.2,1.434-3.2,3.201c0,1.064,0.522,2.006,1.323,2.588c-0.1,0.437-0.154,0.885-0.154,1.341c0,4.777,5.67,8.65,12.666,8.65
	c6.994,0,12.666-3.873,12.666-8.65c0-0.469-0.058-0.929-0.162-1.377C39.089,27.146,39.591,26.222,39.591,25.178z M33.6,15.699
	c0.229-0.496,0.728-0.844,1.31-0.844c0.796,0,1.444,0.648,1.444,1.444s-0.648,1.444-1.444,1.444c-0.753,0-1.366-0.581-1.432-1.317
	c0.061-0.083,0.108-0.177,0.135-0.283C33.651,15.992,33.642,15.84,33.6,15.699z M13.896,26.175
	c-0.729-2.211,1.005-2.302,1.765-2.241C14.92,24.609,14.324,25.365,13.896,26.175z M19.361,27.704c0-1.097,0.889-1.986,1.986-1.986
	c1.097,0,1.986,0.89,1.986,1.986c0,1.098-0.889,1.986-1.986,1.986C20.25,29.69,19.361,28.802,19.361,27.704z M30.049,31.879
	c-1.415,1.455-2.915,2.191-4.461,2.191c-0.074,0-0.147-0.001-0.222-0.005c-2.513-0.113-4.177-2.135-4.247-2.221
	c-0.173-0.214-0.141-0.528,0.073-0.702s0.529-0.142,0.703,0.072c0.015,0.018,1.464,1.763,3.524,1.853
	c1.326,0.055,2.64-0.578,3.913-1.886c0.192-0.197,0.509-0.202,0.707-0.01C30.237,31.364,30.241,31.681,30.049,31.879z M29.751,29.69
	c-1.097,0-1.986-0.889-1.986-1.986c0-1.097,0.889-1.986,1.986-1.986c1.097,0,1.986,0.89,1.986,1.986
	C31.737,28.802,30.848,29.69,29.751,29.69z M37.695,26.109c-0.426-0.787-1.014-1.52-1.738-2.18
	C36.731,23.879,38.355,24.007,37.695,26.109z"/>
<g>
	<path fill="#FFFFFF" d="M127.659,25.478c0,0.847-0.478,1.533-1.066,1.533c-0.588,0-1.065-0.686-1.065-1.533
		c0-0.848,0.478-1.534,1.065-1.534C127.182,23.944,127.659,24.629,127.659,25.478L127.659,25.478z"/>
	<path fill="#FFFFFF" d="M136.232,25.478c0,0.847-0.478,1.533-1.065,1.533s-1.065-0.686-1.065-1.533
		c0-0.848,0.478-1.534,1.065-1.534S136.232,24.629,136.232,25.478L136.232,25.478z"/>
	<path fill="#FFFFFF" d="M140.199,27.082c0.004,0,0.008,0,0.011,0c0.019-0.042,0.039-0.082,0.056-0.125
		c-0.003-0.001-0.008-0.001-0.012-0.001c0.082-0.198,0.152-0.403,0.217-0.614c0.001,0,0.001,0,0.002,0
		c0.013-0.045,0.026-0.09,0.038-0.133c-0.001,0-0.001,0-0.001,0c0.289-1.04,0.375-2.236,0.375-3.57c0-1.915-0.719-3.444-1.886-4.61
		c0.204-0.658,0.478-2.12-0.272-3.993c0,0-1.319-0.418-4.307,1.58c-1.17-0.292-2.416-0.436-3.663-0.436
		c-1.372,0-2.758,0.175-4.051,0.53c-3.083-2.104-4.442-1.673-4.442-1.673c-0.889,2.222-0.34,3.866-0.173,4.274
		c-1.044,1.126-1.682,2.565-1.682,4.329c0,1.331,0.151,2.524,0.522,3.563l0.387,0.882c1.041,1.938,3.093,3.192,6.742,3.585
		c-0.519,0.348-1.047,0.941-1.261,1.941c-0.706,0.338-2.94,1.162-4.28-1.145c0,0-0.75-1.372-2.188-1.479
		c0,0-1.395-0.022-0.096,0.867c0,0,0.932,0.439,1.574,2.092c0,0,0.84,2.814,4.89,1.912v2.908c0,0-0.086,1.029-1.029,1.373
		c0,0-0.558,0.385,0.043,0.6c0,0,2.614,0.215,2.614-1.93v-3.172c0,0-0.104-1.258,0.514-1.695v5.211c0,0-0.042,1.242-0.686,1.715
		c0,0-0.43,0.771,0.514,0.557c0,0,1.801-0.258,1.887-2.357l0.041-5.271h0.433l0.042,5.271c0.086,2.1,1.886,2.357,1.886,2.357
		c0.942,0.215,0.515-0.557,0.515-0.557c-0.644-0.473-0.687-1.715-0.687-1.715v-5.165c0.618,0.48,0.514,1.649,0.514,1.649v3.172
		c0,2.145,2.615,1.93,2.615,1.93c0.601-0.215,0.043-0.6,0.043-0.6c-0.942-0.344-1.028-1.373-1.028-1.373v-4.158
		c0-1.621-0.683-2.479-1.351-2.933C137.471,30.291,139.338,29.034,140.199,27.082z M130.727,29.952c-4.244,0-7.683-0.64-7.683-4.739
		c0-0.981,0.483-1.893,1.312-2.649c1.381-1.261,3.719-0.593,6.371-0.593c2.641,0,4.969-0.674,6.353,0.578
		c0.838,0.759,1.328,1.676,1.328,2.664C138.406,29.826,134.967,29.952,130.727,29.952z"/>
</g>
</svg>
