<?xml version="1.0" encoding="utf-8"?>
<!-- Generator: Adobe Illustrator 15.0.0, SVG Export Plug-In . SVG Version: 6.00 Build 0)  -->
<!DOCTYPE svg PUBLIC "-//W3C//DTD SVG 1.1//EN" "http://www.w3.org/Graphics/SVG/1.1/DTD/svg11.dtd">
<svg version="1.1" id="Layer_1" xmlns="http://www.w3.org/2000/svg" xmlns:xlink="http://www.w3.org/1999/xlink" x="0px" y="0px"
	 width="154px" height="53.023px" viewBox="0 0 154 53.023" enable-background="new 0 0 154 53.023" xml:space="preserve">
<g>
	<path fill="#FF4611" d="M32.875,18.489l6.536,17.527H25.943l-4.208-13.088h-6.458v13.088H2.287V18.489V1.705h12.99v12.34h6.05
		l4.375-12.34H39.13L32.875,18.489z M42.617,1.705l-6.16,16.471l6.506,17.84H54.23l4.626-16.936l4.58,16.936h11.228l12.53-34.311
		H74.448l-5.387,18.413L63.968,1.705H53.68l-5.094,18.464L42.617,1.705z M138.913,18.811l-1.609-2.205l-9.665-14.9h-12.58v14.664
		l6.872,19.646h5.656V19.349l1.559,2.16l9.352,14.507H151.8V1.705h-12.887V18.811L138.913,18.811z M104.781,36.016h9h4.671
		l-6.931-19.083l-5.604-15.228H91.005L78.379,36.016h13.717l1.407-4.312h6.69l-5.19-18.086h3.484L104.781,36.016z"/>
	<polygon fill="#FF4611" points="2.033,51.053 2.033,43.264 3.728,43.264 3.728,49.573 7.014,49.573 7.014,51.053 	"/>
	<path fill="#FF4611" d="M10.648,43.149c2.106,0,3.424,1.672,3.424,4.021c0,2.338-1.318,3.996-3.424,3.996
		c-2.084,0-3.39-1.658-3.39-3.996C7.258,44.821,8.563,43.149,10.648,43.149 M10.648,49.573c1.052,0,1.764-0.754,1.764-2.402
		c0-1.674-0.71-2.428-1.764-2.428c-1.033,0-1.729,0.754-1.729,2.428C8.917,48.819,9.614,49.573,10.648,49.573"/>
	<polygon fill="#FF4611" points="14.235,43.264 16.057,43.264 17.784,49.176 19.549,43.264 21.381,43.264 18.84,51.053 
		16.73,51.053 	"/>
	<polygon fill="#FF4611" points="22.072,51.053 22.072,43.264 27.431,43.264 27.431,44.752 23.697,44.752 23.697,46.344 
		26.722,46.344 26.722,47.789 23.697,47.789 23.697,49.573 27.431,49.573 27.431,51.053 	"/>
	<path fill="#FF4611" d="M28.808,51.178c-0.389-0.115-0.586-0.471-0.586-0.938c0-0.668,0.345-1.045,0.951-1.045
		c0.608,0,0.976,0.412,0.976,1.045c0,0.881-0.471,2.139-0.838,2.783l-0.915-0.367L28.808,51.178z"/>
	<path fill="#FF4611" d="M33.366,43.264h3.367c1.432,0,2.371,1.053,2.371,2.553c0,1.184-0.707,2.041-1.672,2.34l1.926,2.6v0.299
		H37.56l-1.936-2.795h-0.562v2.795h-1.696V43.264z M35.062,44.742v2.211h1.225c0.652,0,1.089-0.426,1.089-1.102
		c0-0.723-0.437-1.109-1.089-1.109H35.062z"/>
	<polygon fill="#FF4611" points="40.196,51.053 40.196,43.264 45.555,43.264 45.555,44.752 41.823,44.752 41.823,46.344 
		44.844,46.344 44.844,47.789 41.823,47.789 41.823,49.573 45.555,49.573 45.555,51.053 	"/>
	<path fill="#FF4611" d="M46.61,48.979c0.517,0.355,1.318,0.662,2.028,0.662c0.606,0,1.148-0.271,1.148-0.857
		c0-0.363-0.196-0.662-0.782-0.846l-1.018-0.32c-1.134-0.344-1.672-0.994-1.672-2.129c0-1.201,0.927-2.326,2.703-2.326
		c0.905,0,1.819,0.254,2.346,0.551l-0.47,1.463c-0.503-0.297-1.224-0.502-1.821-0.502c-0.698,0-1.086,0.285-1.086,0.754
		c0,0.414,0.24,0.607,0.711,0.756l1.005,0.332c1.283,0.426,1.821,1.133,1.821,2.176c0,1.398-1.12,2.477-2.827,2.477
		c-0.962,0-1.993-0.32-2.476-0.607L46.61,48.979z"/>
	<path fill="#FF4611" d="M52.556,43.264h3.321c1.319,0,2.464,0.895,2.464,2.854c0,1.764-1.146,2.805-2.464,2.805h-1.626v2.131
		h-1.694L52.556,43.264L52.556,43.264z M54.251,44.742v2.701h1.262c0.619,0,1.1-0.514,1.1-1.338c0-0.883-0.481-1.363-1.1-1.363
		H54.251z"/>
	<polygon fill="#FF4611" points="59.258,51.053 59.258,43.264 64.618,43.264 64.618,44.752 60.887,44.752 60.887,46.344 
		63.908,46.344 63.908,47.789 60.887,47.789 60.887,49.573 64.618,49.573 64.618,51.053 	"/>
	<path fill="#FF4611" d="M68.675,43.149c1.1,0,2.017,0.539,2.611,1.227l-0.837,1.166c-0.434-0.445-0.893-0.824-1.615-0.824
		c-1.156,0-1.877,0.824-1.877,2.441c0,1.615,0.721,2.438,1.877,2.438c0.722,0,1.18-0.367,1.615-0.822l0.837,1.166
		c-0.595,0.688-1.512,1.227-2.611,1.227c-1.959,0-3.447-1.502-3.447-4.008C65.228,44.649,66.715,43.149,68.675,43.149"/>
	<polygon fill="#FF4611" points="75.308,44.752 75.308,51.053 73.613,51.053 73.613,44.752 71.61,44.752 71.61,43.264 
		77.256,43.264 77.256,44.752 	"/>
	<path fill="#FF4611" d="M86.535,51.063h-1.912l-0.481-0.539c-0.628,0.402-1.371,0.645-2.232,0.645
		c-1.441,0-2.339-0.871-2.339-2.121c0-0.961,0.602-1.568,1.458-2.039c-0.455-0.549-0.723-1.041-0.723-1.818
		c0-1.057,0.756-2.039,2.28-2.039c1.442,0,2.277,0.758,2.277,2.051c0,1.076-0.799,1.754-1.615,2.143l1.043,1.111
		c0.425-0.529,0.792-1.18,1.056-1.869l1.223,0.885c-0.298,0.674-0.708,1.404-1.27,2.049l1.235,1.307V51.063z M83.189,49.446
		l-1.281-1.453c-0.401,0.229-0.63,0.447-0.63,0.826c0,0.525,0.392,0.902,0.997,0.902C82.57,49.725,82.895,49.633,83.189,49.446
		 M82.367,46.391l0.17-0.082c0.494-0.217,0.71-0.572,0.71-0.949c0-0.424-0.251-0.766-0.661-0.766c-0.402,0-0.681,0.332-0.681,0.766
		C81.908,45.737,82.114,46.069,82.367,46.391"/>
	<path fill="#FF4611" d="M92.495,43.149c1.098,0,2.014,0.539,2.608,1.227l-0.834,1.166c-0.437-0.445-0.896-0.824-1.616-0.824
		c-1.156,0-1.879,0.824-1.879,2.441c0,1.615,0.723,2.438,1.879,2.438c0.723,0,1.182-0.367,1.616-0.822l0.834,1.166
		c-0.597,0.688-1.513,1.227-2.608,1.227c-1.961,0-3.449-1.502-3.449-4.008C89.046,44.649,90.534,43.149,92.495,43.149"/>
	<path fill="#FF4611" d="M98.919,43.149c2.109,0,3.428,1.672,3.428,4.021c0,2.338-1.317,3.996-3.428,3.996
		c-2.082,0-3.388-1.658-3.388-3.996C95.532,44.821,96.837,43.149,98.919,43.149 M98.919,49.573c1.057,0,1.765-0.754,1.765-2.402
		c0-1.674-0.708-2.428-1.765-2.428c-1.029,0-1.729,0.754-1.729,2.428C97.191,48.819,97.89,49.573,98.919,49.573"/>
	<polygon fill="#FF4611" points="109.358,46.082 107.387,48.979 107.1,48.979 105.13,46.082 105.13,51.053 103.436,51.053 
		103.436,43.264 105.075,43.264 107.239,46.471 109.415,43.264 111.05,43.264 111.05,51.053 109.358,51.053 	"/>
	<polygon fill="#FF4611" points="118.456,46.082 116.487,48.979 116.2,48.979 114.23,46.082 114.23,51.053 112.536,51.053 
		112.536,43.264 114.173,43.264 116.339,46.471 118.512,43.264 120.151,43.264 120.151,51.053 118.456,51.053 	"/>
	<path fill="#FF4611" d="M123.245,47.789c0,1.203,0.424,1.818,1.385,1.818c0.998,0,1.41-0.666,1.41-1.834v-4.512h1.694v4.639
		c0,1.832-0.937,3.275-3.103,3.275c-2.119,0-3.082-1.293-3.082-3.275v-4.639h1.695v4.525l0,0V47.789z"/>
	<polygon fill="#FF4611" points="130.829,46.115 130.829,51.053 129.145,51.053 129.145,43.264 130.608,43.264 133.899,48.209 
		133.899,43.264 135.606,43.264 135.606,51.053 134.118,51.053 	"/>
	<rect x="137.095" y="43.264" fill="#FF4611" width="1.697" height="7.789"/>
	<polygon fill="#FF4611" points="143.35,44.752 143.35,51.053 141.656,51.053 141.656,44.752 139.649,44.752 139.649,43.264 
		145.296,43.264 145.296,44.752 	"/>
	<polygon fill="#FF4611" points="147.852,47.992 145.335,43.391 145.335,43.264 147.202,43.264 148.688,46.436 150.189,43.264 
		152.034,43.264 152.034,43.391 149.516,47.981 149.516,51.053 147.852,51.053 	"/>
</g>
</svg>
