<?xml version="1.0" encoding="utf-8"?>
<!-- Generator: Adobe Illustrator 15.0.0, SVG Export Plug-In . SVG Version: 6.00 Build 0)  -->
<!DOCTYPE svg PUBLIC "-//W3C//DTD SVG 1.1//EN" "http://www.w3.org/Graphics/SVG/1.1/DTD/svg11.dtd">
<svg version="1.1" id="Layer_1" xmlns="http://www.w3.org/2000/svg" xmlns:xlink="http://www.w3.org/1999/xlink" x="0px" y="0px"
	 width="154px" height="53.024px" viewBox="-11.5 -4.5 154 53.024" enable-background="new -11.5 -4.5 154 53.024"
	 xml:space="preserve">
<g>
	<path fill="#FFFFFF" d="M21.646,13.989l6.536,17.528H14.714l-4.208-13.088H4.048v13.088h-12.99V13.989V-2.794h12.99v12.34h6.05
		l4.375-12.34h13.428L21.646,13.989z M31.388-2.794l-6.16,16.471l6.506,17.84h11.267l4.626-16.936l4.58,16.936h11.228l12.53-34.311
		H63.219l-5.387,18.413L52.739-2.794H42.451l-5.094,18.464L31.388-2.794z M127.684,14.312l-1.61-2.205l-9.665-14.901h-12.58v14.664
		l6.872,19.647h5.657V14.85l1.558,2.16l9.351,14.507h13.303V-2.794h-12.886L127.684,14.312L127.684,14.312z M93.552,31.517h9h4.67
		l-6.93-19.083L94.688-2.794H79.775L67.15,31.517h13.716l1.407-4.313h6.691L83.773,9.118h3.485L93.552,31.517z"/>
	<polygon fill="#FFFFFF" points="-9.196,46.553 -9.196,38.765 -7.501,38.765 -7.501,45.073 -4.215,45.073 -4.215,46.553 	"/>
	<path fill="#FFFFFF" d="M-0.581,38.649c2.106,0,3.424,1.672,3.424,4.021c0,2.338-1.318,3.996-3.424,3.996
		c-2.084,0-3.39-1.658-3.39-3.996C-3.971,40.321-2.666,38.649-0.581,38.649 M-0.581,45.073c1.052,0,1.764-0.754,1.764-2.403
		c0-1.673-0.71-2.428-1.764-2.428c-1.033,0-1.729,0.755-1.729,2.428C-2.312,44.319-1.615,45.073-0.581,45.073"/>
	<polygon fill="#FFFFFF" points="3.006,38.765 4.828,38.765 6.555,44.676 8.32,38.765 10.152,38.765 7.611,46.553 5.501,46.553 	"/>
	<polygon fill="#FFFFFF" points="10.843,46.553 10.843,38.765 16.202,38.765 16.202,40.253 12.468,40.253 12.468,41.844 
		15.493,41.844 15.493,43.289 12.468,43.289 12.468,45.073 16.202,45.073 16.202,46.553 	"/>
	<path fill="#FFFFFF" d="M17.579,46.678c-0.389-0.115-0.586-0.47-0.586-0.938c0-0.667,0.345-1.043,0.951-1.043
		c0.608,0,0.976,0.412,0.976,1.043c0,0.881-0.471,2.14-0.838,2.784l-0.915-0.367L17.579,46.678z"/>
	<path fill="#FFFFFF" d="M22.137,38.765h3.367c1.432,0,2.371,1.053,2.371,2.553c0,1.182-0.707,2.04-1.672,2.338l1.926,2.601v0.298
		h-1.798l-1.936-2.795h-0.562v2.795h-1.696V38.765z M23.833,40.242v2.212h1.225c0.652,0,1.089-0.426,1.089-1.101
		c0-0.724-0.437-1.111-1.089-1.111H23.833z"/>
	<polygon fill="#FFFFFF" points="28.967,46.553 28.967,38.765 34.326,38.765 34.326,40.253 30.594,40.253 30.594,41.844 
		33.615,41.844 33.615,43.289 30.594,43.289 30.594,45.073 34.326,45.073 34.326,46.553 	"/>
	<path fill="#FFFFFF" d="M35.381,44.479c0.517,0.356,1.318,0.663,2.028,0.663c0.606,0,1.148-0.272,1.148-0.858
		c0-0.364-0.196-0.662-0.782-0.845l-1.018-0.322c-1.134-0.342-1.672-0.994-1.672-2.128c0-1.202,0.927-2.326,2.703-2.326
		c0.905,0,1.819,0.254,2.346,0.55l-0.47,1.464c-0.503-0.297-1.224-0.502-1.821-0.502c-0.698,0-1.086,0.285-1.086,0.754
		c0,0.414,0.24,0.607,0.711,0.755l1.005,0.332c1.283,0.426,1.821,1.134,1.821,2.177c0,1.398-1.12,2.475-2.827,2.475
		c-0.962,0-1.993-0.32-2.476-0.607L35.381,44.479z"/>
	<path fill="#FFFFFF" d="M41.327,38.765h3.321c1.319,0,2.464,0.893,2.464,2.852c0,1.764-1.146,2.806-2.464,2.806h-1.626v2.13h-1.694
		V38.765z M43.022,40.242v2.703h1.262c0.619,0,1.1-0.514,1.1-1.339c0-0.882-0.481-1.364-1.1-1.364H43.022z"/>
	<polygon fill="#FFFFFF" points="48.029,46.553 48.029,38.765 53.389,38.765 53.389,40.253 49.658,40.253 49.658,41.844 
		52.679,41.844 52.679,43.289 49.658,43.289 49.658,45.073 53.389,45.073 53.389,46.553 	"/>
	<path fill="#FFFFFF" d="M57.446,38.649c1.1,0,2.017,0.539,2.611,1.227l-0.837,1.166c-0.434-0.446-0.893-0.825-1.615-0.825
		c-1.156,0-1.877,0.825-1.877,2.441s0.721,2.438,1.877,2.438c0.722,0,1.18-0.366,1.615-0.822l0.837,1.167
		c-0.595,0.687-1.512,1.225-2.611,1.225c-1.959,0-3.447-1.501-3.447-4.008C53.999,40.15,55.486,38.649,57.446,38.649"/>
	<polygon fill="#FFFFFF" points="64.079,40.253 64.079,46.553 62.384,46.553 62.384,40.253 60.381,40.253 60.381,38.765 
		66.027,38.765 66.027,40.253 	"/>
	<path fill="#FFFFFF" d="M75.305,46.563h-1.912l-0.481-0.538c-0.628,0.401-1.371,0.644-2.233,0.644
		c-1.441,0-2.338-0.872-2.338-2.121c0-0.961,0.601-1.569,1.458-2.04c-0.455-0.549-0.723-1.04-0.723-1.818
		c0-1.056,0.756-2.039,2.28-2.039c1.443,0,2.278,0.757,2.278,2.051c0,1.076-0.799,1.753-1.616,2.143l1.043,1.11
		c0.425-0.529,0.792-1.179,1.056-1.868l1.223,0.884c-0.298,0.674-0.708,1.405-1.27,2.05l1.235,1.306V46.563z M71.96,44.947
		l-1.282-1.455c-0.401,0.23-0.629,0.448-0.629,0.827c0,0.526,0.391,0.903,0.997,0.903C71.341,45.225,71.665,45.133,71.96,44.947
		 M71.137,41.892l0.17-0.082c0.495-0.217,0.71-0.572,0.71-0.95c0-0.423-0.251-0.766-0.661-0.766c-0.402,0-0.68,0.332-0.68,0.766
		C70.678,41.237,70.885,41.57,71.137,41.892"/>
	<path fill="#FFFFFF" d="M81.265,38.649c1.098,0,2.015,0.539,2.609,1.227l-0.834,1.166c-0.436-0.446-0.895-0.825-1.616-0.825
		c-1.157,0-1.879,0.825-1.879,2.441s0.722,2.438,1.879,2.438c0.722,0,1.181-0.366,1.616-0.822l0.834,1.167
		c-0.597,0.687-1.512,1.225-2.609,1.225c-1.96,0-3.448-1.501-3.448-4.008C77.816,40.15,79.305,38.649,81.265,38.649"/>
	<path fill="#FFFFFF" d="M87.69,38.649c2.109,0,3.427,1.672,3.427,4.021c0,2.338-1.317,3.996-3.427,3.996
		c-2.082,0-3.388-1.658-3.388-3.996C84.303,40.321,85.608,38.649,87.69,38.649 M87.69,45.073c1.056,0,1.764-0.754,1.764-2.403
		c0-1.673-0.708-2.428-1.764-2.428c-1.03,0-1.729,0.755-1.729,2.428C85.962,44.319,86.66,45.073,87.69,45.073"/>
	<polygon fill="#FFFFFF" points="98.129,41.582 96.157,44.479 95.87,44.479 93.9,41.582 93.9,46.553 92.206,46.553 92.206,38.765 
		93.845,38.765 96.01,41.971 98.186,38.765 99.821,38.765 99.821,46.553 98.129,46.553 	"/>
	<polygon fill="#FFFFFF" points="107.227,41.582 105.258,44.479 104.971,44.479 103.001,41.582 103.001,46.553 101.306,46.553 
		101.306,38.765 102.944,38.765 105.109,41.971 107.282,38.765 108.922,38.765 108.922,46.553 107.227,46.553 	"/>
	<path fill="#FFFFFF" d="M112.015,43.289c0,1.203,0.424,1.82,1.386,1.82c0.997,0,1.409-0.666,1.409-1.835v-4.511h1.695v4.639
		c0,1.831-0.937,3.275-3.103,3.275c-2.119,0-3.081-1.294-3.081-3.275v-4.639h1.695v4.525H112.015z"/>
	<polygon fill="#FFFFFF" points="119.599,41.616 119.599,46.553 117.915,46.553 117.915,38.765 119.379,38.765 122.67,43.709 
		122.67,38.765 124.377,38.765 124.377,46.553 122.889,46.553 	"/>
	<rect x="125.865" y="38.765" fill="#FFFFFF" width="1.698" height="7.788"/>
	<polygon fill="#FFFFFF" points="132.12,40.253 132.12,46.553 130.427,46.553 130.427,40.253 128.42,40.253 128.42,38.765 
		134.067,38.765 134.067,40.253 	"/>
	<polygon fill="#FFFFFF" points="136.622,43.493 134.105,38.892 134.105,38.765 135.973,38.765 137.459,41.937 138.96,38.765 
		140.804,38.765 140.804,38.892 138.286,43.481 138.286,46.553 136.622,46.553 	"/>
</g>
</svg>
